<?xml version="1.0" encoding="UTF-8"?>
<svg>
    <defs>

        <svg id="category" viewBox="0 0 24 24">
            <path d="M4 11h5V5H4v6zm0 7h5v-6H4v6zm6 0h5v-6h-5v6zm6 0h5v-6h-5v6zm-6-7h5V5h-5v6zm6-6v6h5V5h-5z" />
            <path d="M0 0h24v24H0z" fill="none" />
        </svg>

        <svg id="price" viewBox="0 0 24 24">
            <path fill="currentColor" d="M3,6H21V18H3V6M12,9A3,3 0 0,1 15,12A3,3 0 0,1 12,15A3,3 0 0,1 9,12A3,3 0 0,1 12,9M7,8A2,2 0 0,1 5,10V14A2,2 0 0,1 7,16H17A2,2 0 0,1 19,14V10A2,2 0 0,1 17,8H7Z" />
        </svg>

        <svg id="subCategory" viewBox="0 0 24 24">
            <path d="M4 8h4V4H4v4zm6 12h4v-4h-4v4zm-6 0h4v-4H4v4zm0-6h4v-4H4v4zm6 0h4v-4h-4v4zm6-10v4h4V4h-4zm-6 4h4V4h-4v4zm6 6h4v-4h-4v4zm0 6h4v-4h-4v4z" />
            <path d="M0 0h24v24H0z" fill="none" />
        </svg>

        <svg id="close" viewBox="0 0 24 24">
            <path fill="currentColor" d="M19,6.41L17.59,5L12,10.59L6.41,5L5,6.41L10.59,12L5,17.59L6.41,19L12,13.41L17.59,19L19,17.59L13.41,12L19,6.41Z" />
        </svg>

        <svg id="add" viewBox="0 0 24 24">
            <path d="M19,13H13V19H11V13H5V11H11V5H13V11H19V13Z" />
        </svg>

        <svg id="product" viewBox="0 0 24 24">
            <path d="M9.06,1.93C7.17,1.92 5.33,3.74 6.17,6H3A2,2 0 0,0 1,8V10A1,1 0 0,0 2,11H11V8H13V11H22A1,1 0 0,0 23,10V8A2,2 0 0,0 21,6H17.83C19,2.73 14.6,0.42 12.57,3.24L12,4L11.43,3.22C10.8,2.33 9.93,1.94 9.06,1.93M9,4C9.89,4 10.34,5.08 9.71,5.71C9.08,6.34 8,5.89 8,5A1,1 0 0,1 9,4M15,4C15.89,4 16.34,5.08 15.71,5.71C15.08,6.34 14,5.89 14,5A1,1 0 0,1 15,4M2,12V20A2,2 0 0,0 4,22H20A2,2 0 0,0 22,20V12H13V20H11V12H2Z" />
        </svg>

        <svg id="currency" viewBox="0 0 24 24">
            <path fill="currentColor" d="M12,15H14C14,16.08 15.37,17 17,17C18.63,17 20,16.08 20,15C20,13.9 18.96,13.5 16.76,12.97C14.64,12.44 12,11.78 12,9C12,7.21 13.47,5.69 15.5,5.18V3H18.5V5.18C20.53,5.69 22,7.21 22,9H20C20,7.92 18.63,7 17,7C15.37,7 14,7.92 14,9C14,10.1 15.04,10.5 17.24,11.03C19.36,11.56 22,12.22 22,15C22,16.79 20.53,18.31 18.5,18.82V21H15.5V18.82C13.47,18.31 12,16.79 12,15M2,3H5.5A5.5,5.5 0 0,1 11,8.5C11,10.69 9.71,12.59 7.86,13.47L11.64,21H9.4L5.88,14H5.5L4,14V21H2V3M5.5,12A3.5,3.5 0 0,0 9,8.5A3.5,3.5 0 0,0 5.5,5H4V12H5.5Z" />
        </svg>

        <svg id="brand" viewBox="0 0 24 24">
            <path d="M18.8,2.07C21.32,2.5 22.04,4.23 22,6.04V6L20.86,20.93L6.08,21.94H6.09C4.86,21.89 2.13,21.77 2,17.95L3.37,15.45L6.14,21.91L8.5,14.29L8.45,14.3L8.47,14.28L16.18,16.74L14.19,8.96L21.54,8.5L15.75,3.76L18.8,2.06V2.07M2,17.91V17.93L2,17.91V17.91M6.28,6.23C9.24,3.28 13.07,1.54 14.54,3.03C16,4.5 14.46,8.12 11.5,11.06C8.5,14 4.73,15.84 3.26,14.36C1.79,12.87 3.3,9.17 6.27,6.23H6.28Z" />
        </svg>

        <svg id="address" viewBox="0 0 24 24">
            <path fill="currentColor" d="M12,11.5A2.5,2.5 0 0,1 9.5,9A2.5,2.5 0 0,1 12,6.5A2.5,2.5 0 0,1 14.5,9A2.5,2.5 0 0,1 12,11.5M12,2A7,7 0 0,0 5,9C5,14.25 12,22 12,22C12,22 19,14.25 19,9A7,7 0 0,0 12,2Z" />
        </svg>

        <svg id="subbrand" viewBox="0 0 24 24">
            <path d="M16,9H19L14,16M10,9H14L12,17M5,9H8L10,16M15,4H17L19,7H16M11,4H13L14,7H10M7,4H9L8,7H5M6,2L2,8L12,22L22,8L18,2H6Z" />
        </svg>
        <svg id="superbrand" viewBox="0 0 24 24">
            <path d="M6,2L2,8L12,22L22,8L18,2H6Z" />
        </svg>
        <svg id="couple" viewBox="0 0 24 24">
            <path d="M9,4A4,4 0 0,1 13,8A4,4 0 0,1 9,12A4,4 0 0,1 5,8A4,4 0 0,1 9,4M9,6A2,2 0 0,0 7,8A2,2 0 0,0 9,10A2,2 0 0,0 11,8A2,2 0 0,0 9,6M9,13C11.67,13 17,14.34 17,17V20H1V17C1,14.34 6.33,13 9,13M9,14.9C6.03,14.9 2.9,16.36 2.9,17V18.1H15.1V17C15.1,16.36 11.97,14.9 9,14.9M15,4A4,4 0 0,1 19,8A4,4 0 0,1 15,12C14.53,12 14.08,11.92 13.67,11.77C14.5,10.74 15,9.43 15,8C15,6.57 14.5,5.26 13.67,4.23C14.08,4.08 14.53,4 15,4M23,17V20H19V16.5C19,15.25 18.24,14.1 16.97,13.18C19.68,13.62 23,14.9 23,17Z" />
        </svg>

        <svg id="inventory" viewBox="0 0 24 24">
            <path d="M21,19V17H8V19H21M21,13V11H8V13H21M8,7H21V5H8V7M4,5V7H6V5H4M3,5A1,1 0 0,1 4,4H6A1,1 0 0,1 7,5V7A1,1 0 0,1 6,8H4A1,1 0 0,1 3,7V5M4,11V13H6V11H4M3,11A1,1 0 0,1 4,10H6A1,1 0 0,1 7,11V13A1,1 0 0,1 6,14H4A1,1 0 0,1 3,13V11M4,17V19H6V17H4M3,17A1,1 0 0,1 4,16H6A1,1 0 0,1 7,17V19A1,1 0 0,1 6,20H4A1,1 0 0,1 3,19V17Z" />
        </svg>

        <svg id="invoice" viewBox="0 0 24 24">
            <path d="M3,22L4.5,20.5L6,22L7.5,20.5L9,22L10.5,20.5L12,22L13.5,20.5L15,22L16.5,20.5L18,22L19.5,20.5L21,22V2L19.5,3.5L18,2L16.5,3.5L15,2L13.5,3.5L12,2L10.5,3.5L9,2L7.5,3.5L6,2L4.5,3.5L3,2M18,9H6V7H18M18,13H6V11H18M18,17H6V15H18V17Z" />
        </svg>

        <svg id="purchase" viewBox="0 0 24 24">
            <path d="M5,6H23V18H5V6M14,9A3,3 0 0,1 17,12A3,3 0 0,1 14,15A3,3 0 0,1 11,12A3,3 0 0,1 14,9M9,8A2,2 0 0,1 7,10V14A2,2 0 0,1 9,16H19A2,2 0 0,1 21,14V10A2,2 0 0,1 19,8H9M1,10H3V20H19V22H1V10Z" />
        </svg>

        <svg id="purchaseitem" viewBox="0 0 24 24">
            <path d="M20,18H4V6H20M20,4H4C2.89,4 2,4.89 2,6V18A2,2 0 0,0 4,20H20A2,2 0 0,0 22,18V6C22,4.89 21.1,4 20,4M11,17H13V16H14A1,1 0 0,0 15,15V12A1,1 0 0,0 14,11H11V10H15V8H13V7H11V8H10A1,1 0 0,0 9,9V12A1,1 0 0,0 10,13H13V14H9V16H11V17Z" />
        </svg>

        <svg id="size" viewBox="0 0 24 24">
            <path d="M3,12H6V19H9V12H12V9H3M9,4V7H14V19H17V7H22V4H9Z" />
        </svg>

        <svg id="batch" viewBox="0 0 24 24">
            <path fill="currentColor" d="M2,16H10V14H2M12,14V16H22V14M14,6H2V8H14M14,10H2V12H14V10Z" />
        </svg>

        <svg id="salesOrderCharge" viewBox="0 0 24 24">
            <path fill="currentColor" d="M5,6H23V18H5V6M14,9A3,3 0 0,1 17,12A3,3 0 0,1 14,15A3,3 0 0,1 11,12A3,3 0 0,1 14,9M9,8A2,2 0 0,1 7,10V14A2,2 0 0,1 9,16H19A2,2 0 0,1 21,14V10A2,2 0 0,1 19,8H9M1,10H3V20H19V22H1V10Z" />
        </svg>

        <svg id="salesChargeType" viewBox="0 0 24 24">
            <path fill="currentColor" d="M3,6H21V18H3V6M12,9A3,3 0 0,1 15,12A3,3 0 0,1 12,15A3,3 0 0,1 9,12A3,3 0 0,1 12,9M7,8A2,2 0 0,1 5,10V14A2,2 0 0,1 7,16H17A2,2 0 0,1 19,14V10A2,2 0 0,1 17,8H7Z" />
        </svg>

        <svg id="salesOrder" viewBox="0 0 24 24">
            <path fill="currentColor" d="M20,5C19.4,5 19,5.5 19,6.1V16C19,16.6 19.4,17 20,17.1C20.6,17.1 21,16.6 21,16V6.1C21,5.5 20.6,5 20,5M16.4,2H4.6C3.7,2 3,2.7 3,3.6V17.4C3,18.3 3.7,19 4.6,19H6V21C6,21.6 6.4,22 7,22H13C13.6,22 14,21.6 14,21V19H16.4C17.3,19 18,18.3 18,17.4V3.6C18,2.7 17.3,2 16.4,2M5,8H8V10H5V8M12,11V13H9V11H12M9,10V8H12V10H9M12,14V16H9V14H12M5,11H8V13H5V11M5,16V14H8V16H5M8,21H7V19H8V21M13,21H10V19H13V21M16,16H13V14H16V16M16,13H13V11H16V13M16,10H13V8H16V10M16,6H5V4H16V6Z" />
        </svg>

        <svg id="salesOrderLine" viewBox="0 0 24 24">
            <path fill="currentColor" d="M18.65,2.85L19.26,6.71L22.77,8.5L21,12L22.78,15.5L19.24,17.29L18.63,21.15L14.74,20.54L11.97,23.3L9.19,20.5L5.33,21.14L4.71,17.25L1.22,15.47L3,11.97L1.23,8.5L4.74,6.69L5.35,2.86L9.22,3.5L12,0.69L14.77,3.46L18.65,2.85M9.5,7A1.5,1.5 0 0,0 8,8.5A1.5,1.5 0 0,0 9.5,10A1.5,1.5 0 0,0 11,8.5A1.5,1.5 0 0,0 9.5,7M14.5,14A1.5,1.5 0 0,0 13,15.5A1.5,1.5 0 0,0 14.5,17A1.5,1.5 0 0,0 16,15.5A1.5,1.5 0 0,0 14.5,14M8.41,17L17,8.41L15.59,7L7,15.59L8.41,17Z" />
        </svg>

        <svg id="deliveryOrder" viewBox="0 0 24 24">
            <path fill="currentColor" d="M4 13C2.89 13 2 13.89 2 15V19C2 20.11 2.89 21 4 21H8C9.11 21 10 20.11 10 19V15C10 13.89 9.11 13 8 13M8.2 14.5L9.26 15.55L5.27 19.5L2.74 16.95L3.81 15.9L5.28 17.39M4 3C2.89 3 2 3.89 2 5V9C2 10.11 2.89 11 4 11H8C9.11 11 10 10.11 10 9V5C10 3.89 9.11 3 8 3M4 5H8V9H4M12 5H22V7H12M12 19V17H22V19M12 11H22V13H12Z" />
        </svg>

        <svg id="supplierForProduct" viewBox="0 0 24 24">
            <path fill="currentColor" d="M3,16H12V21H3V16M2,10H8V15H2V10M9,10H15V15H9V10M16,10H22V15H16V10M13,16H21V21H13V16M3,4H11V9H3V4M12,4H21V9H12V4Z" />
        </svg>

        <svg id="stockKeepingUnit" viewBox="0 0 24 24">
            <path fill="currentColor" d="M2,6H4V18H2V6M5,6H6V18H5V6M7,6H10V18H7V6M11,6H12V18H11V6M14,6H16V18H14V6M17,6H20V18H17V6M21,6H22V18H21V6Z" />
        </svg>

        <svg id="shop" viewBox="0 0 24 24">
            <path fill="currentColor" d="M12,18H6V14H12M21,14V12L20,7H4L3,12V14H4V20H14V14H18V20H20V14M20,4H4V6H20V4Z" />
        </svg>

        <svg id="purchaseOrder" viewBox="0 0 24 24">
            <path fill="currentColor" d="M19,11L20,19H4L5,11H19M14,3H10L8,5V9H4.7A1.65,1.65 0 0,0 3,10.5L2,19.1A1.74,1.74 0 0,0 3.7,21H20.3A1.74,1.74 0 0,0 22,19.1L21,10.5A1.65,1.65 0 0,0 19.3,9H16V5L14,3M10,9V5H14V9" />
        </svg>

        <svg id="supplier" viewBox="0 0 24 24">
            <path fill="currentColor" d="M11 6H14L17.29 2.7A1 1 0 0 1 18.71 2.7L21.29 5.29A1 1 0 0 1 21.29 6.7L19 9H11V11A1 1 0 0 1 10 12A1 1 0 0 1 9 11V8A2 2 0 0 1 11 6M5 11V15L2.71 17.29A1 1 0 0 0 2.71 18.7L5.29 21.29A1 1 0 0 0 6.71 21.29L11 17H15A1 1 0 0 0 16 16V15H17A1 1 0 0 0 18 14V13H19A1 1 0 0 0 20 12V11H13V12A2 2 0 0 1 11 14H9A2 2 0 0 1 7 12V9Z" />
        </svg>

        <svg id="purchaseOrderLine" viewBox="0 0 24 24">
            <path fill="currentColor" d="M4,2A2,2 0 0,0 2,4V14H4V4H14V2H4M8,6A2,2 0 0,0 6,8V18H8V8H18V6H8M20,12V20H12V12H20M20,10H12A2,2 0 0,0 10,12V20A2,2 0 0,0 12,22H20A2,2 0 0,0 22,20V12A2,2 0 0,0 20,10Z" />
        </svg>

        <svg id="inventoryTransaction" viewBox="0 0 24 24">
            <path fill="currentColor" d="M15,14V11H18V9L22,12.5L18,16V14H15M14,7.7V9H2V7.7L8,4L14,7.7M7,10H9V15H7V10M3,10H5V15H3V10M13,10V12.5L11,14.3V10H13M9.1,16L8.5,16.5L10.2,18H2V16H9.1M17,15V18H14V20L10,16.5L14,13V15H17Z" />
        </svg>

        <svg id="country" viewBox="0 0 24 24">
            <path fill="currentColor" d="M17.9,17.39C17.64,16.59 16.89,16 16,16H15V13A1,1 0 0,0 14,12H8V10H10A1,1 0 0,0 11,9V7H13A2,2 0 0,0 15,5V4.59C17.93,5.77 20,8.64 20,12C20,14.08 19.2,15.97 17.9,17.39M11,19.93C7.05,19.44 4,16.08 4,12C4,11.38 4.08,10.78 4.21,10.21L9,15V16A2,2 0 0,0 11,18M12,2A10,10 0 0,0 2,12A10,10 0 0,0 12,22A10,10 0 0,0 22,12A10,10 0 0,0 12,2Z" />
        </svg>

        <svg id="deliveryVehicle" viewBox="0 0 24 24">
            <path fill="currentColor" d="M3,6H16L19,10H21C22.11,10 23,10.89 23,12V15H21A3,3 0 0,1 18,18A3,3 0 0,1 15,15H9A3,3 0 0,1 6,18A3,3 0 0,1 3,15H1V8C1,6.89 1.89,6 3,6M2.5,7.5V10H10.5V7.5H2.5M12,7.5V10H17.14L15.25,7.5H12M6,13.5A1.5,1.5 0 0,0 4.5,15A1.5,1.5 0 0,0 6,16.5A1.5,1.5 0 0,0 7.5,15A1.5,1.5 0 0,0 6,13.5M18,13.5A1.5,1.5 0 0,0 16.5,15A1.5,1.5 0 0,0 18,16.5A1.5,1.5 0 0,0 19.5,15A1.5,1.5 0 0,0 18,13.5Z" />
        </svg>

        <svg id="delete" viewBox="0 0 24 24">
            <path fill="currentColor" d="M6,19A2,2 0 0,0 8,21H16A2,2 0 0,0 18,19V7H6V19M8,9H16V19H8V9M15.5,4L14.5,3H9.5L8.5,4H5V6H19V4H15.5Z" />
        </svg>

        <svg id="project" viewBox="0 0 24 24">
            <path fill="currentColor" d="M12,15C7.58,15 4,16.79 4,19V21H20V19C20,16.79 16.42,15 12,15M8,9A4,4 0 0,0 12,13A4,4 0 0,0 16,9M11.5,2C11.2,2 11,2.21 11,2.5V5.5H10V3C10,3 7.75,3.86 7.75,6.75C7.75,6.75 7,6.89 7,8H17C16.95,6.89 16.25,6.75 16.25,6.75C16.25,3.86 14,3 14,3V5.5H13V2.5C13,2.21 12.81,2 12.5,2H11.5Z" />
        </svg>

        <svg id="tool" viewBox="0 0 24 24">
            <path fill="currentColor" d="M13.78 15.3L19.78 21.3L21.89 19.14L15.89 13.14L13.78 15.3M17.5 10.1C17.11 10.1 16.69 10.05 16.36 9.91L4.97 21.25L2.86 19.14L10.27 11.74L8.5 9.96L7.78 10.66L6.33 9.25V12.11L5.63 12.81L2.11 9.25L2.81 8.55H5.62L4.22 7.14L7.78 3.58C8.95 2.41 10.83 2.41 12 3.58L9.89 5.74L11.3 7.14L10.59 7.85L12.38 9.63L14.2 7.75C14.06 7.42 14 7 14 6.63C14 4.66 15.56 3.11 17.5 3.11C18.09 3.11 18.61 3.25 19.08 3.53L16.41 6.2L17.91 7.7L20.58 5.03C20.86 5.5 21 6 21 6.63C21 8.55 19.45 10.1 17.5 10.1Z" />
        </svg>

        <svg id="customerPayment" viewBox="0 0 24 24">
            <path fill="currentColor" d="M20,8H4V6H20M20,18H4V12H20M20,4H4C2.89,4 2,4.89 2,6V18A2,2 0 0,0 4,20H20A2,2 0 0,0 22,18V6C22,4.89 21.1,4 20,4Z" />
        </svg>

        <svg id="unitOfMeasure" viewBox="0 0 24 24">
            <path fill="currentColor" d="M7,3V5H17V3H7M9,7V9H15V7H9M2,7.96V16.04L6.03,12L2,7.96M22.03,7.96L18,12L22.03,16.04V7.96M7,11V13H17V11H7M9,15V17H15V15H9M7,19V21H17V19H7Z" />
        </svg>

        <svg id="team" viewBox="0 0 24 24">
            <path fill="currentColor" d="M12,5.5A3.5,3.5 0 0,1 15.5,9A3.5,3.5 0 0,1 12,12.5A3.5,3.5 0 0,1 8.5,9A3.5,3.5 0 0,1 12,5.5M5,8C5.56,8 6.08,8.15 6.53,8.42C6.38,9.85 6.8,11.27 7.66,12.38C7.16,13.34 6.16,14 5,14A3,3 0 0,1 2,11A3,3 0 0,1 5,8M19,8A3,3 0 0,1 22,11A3,3 0 0,1 19,14C17.84,14 16.84,13.34 16.34,12.38C17.2,11.27 17.62,9.85 17.47,8.42C17.92,8.15 18.44,8 19,8M5.5,18.25C5.5,16.18 8.41,14.5 12,14.5C15.59,14.5 18.5,16.18 18.5,18.25V20H5.5V18.25M0,20V18.5C0,17.11 1.89,15.94 4.45,15.6C3.86,16.28 3.5,17.22 3.5,18.25V20H0M24,20H20.5V18.25C20.5,17.22 20.14,16.28 19.55,15.6C22.11,15.94 24,17.11 24,18.5V20Z" />
        </svg>

        <svg id="deliveryOrderLine" viewBox="0 0 24 24">
            <path fill="currentColor" d="M3,13.5L2.25,12H7.5L6.9,10.5H2L1.25,9H9.05L8.45,7.5H1.11L0.25,6H4A2,2 0 0,1 6,4H18V8H21L24,12V17H22A3,3 0 0,1 19,20A3,3 0 0,1 16,17H12A3,3 0 0,1 9,20A3,3 0 0,1 6,17H4V13.5H3M19,18.5A1.5,1.5 0 0,0 20.5,17A1.5,1.5 0 0,0 19,15.5A1.5,1.5 0 0,0 17.5,17A1.5,1.5 0 0,0 19,18.5M20.5,9.5H18V12H22.46L20.5,9.5M9,18.5A1.5,1.5 0 0,0 10.5,17A1.5,1.5 0 0,0 9,15.5A1.5,1.5 0 0,0 7.5,17A1.5,1.5 0 0,0 9,18.5Z" />
        </svg>

        <svg id="vehicle" viewBox="0 0 24 24">
            <path fill="currentColor" d="M20,8H19L17,8H15V14H2V17H3A3,3 0 0,0 6,20A3,3 0 0,0 9,17H15A3,3 0 0,0 18,20A3,3 0 0,0 21,17H23V12L20,8M6,18.5A1.5,1.5 0 0,1 4.5,17A1.5,1.5 0 0,1 6,15.5A1.5,1.5 0 0,1 7.5,17A1.5,1.5 0 0,1 6,18.5M18,18.5A1.5,1.5 0 0,1 16.5,17A1.5,1.5 0 0,1 18,15.5A1.5,1.5 0 0,1 19.5,17A1.5,1.5 0 0,1 18,18.5M17,12V9.5H19.5L21.46,12H17M18,7H14V13H3L1.57,8H1V6H13L14,5H18V7Z" />
        </svg>

        <svg id="customer" viewBox="0 0 24 24">
            <path fill="currentColor" d="M12,4A4,4 0 0,1 16,8A4,4 0 0,1 12,12A4,4 0 0,1 8,8A4,4 0 0,1 12,4M12,14C16.42,14 20,15.79 20,18V20H4V18C4,15.79 7.58,14 12,14Z" />
        </svg>

        <svg id="systemUser" viewBox="0 0 24 24">
            <path fill="currentColor" d="M12,19.2C9.5,19.2 7.29,17.92 6,16C6.03,14 10,12.9 12,12.9C14,12.9 17.97,14 18,16C16.71,17.92 14.5,19.2 12,19.2M12,5A3,3 0 0,1 15,8A3,3 0 0,1 12,11A3,3 0 0,1 9,8A3,3 0 0,1 12,5M12,2A10,10 0 0,0 2,12A10,10 0 0,0 12,22A10,10 0 0,0 22,12C22,6.47 17.5,2 12,2Z" />
        </svg>
        <svg id="salesRepresentative" viewBox="0 0 24 24">
            <path fill="currentColor" d="M18.72,14.76C19.07,13.91 19.26,13 19.26,12C19.26,11.28 19.15,10.59 18.96,9.95C18.31,10.1 17.63,10.18 16.92,10.18C13.86,10.18 11.15,8.67 9.5,6.34C8.61,8.5 6.91,10.26 4.77,11.22C4.73,11.47 4.73,11.74 4.73,12A7.27,7.27 0 0,0 12,19.27C13.05,19.27 14.06,19.04 14.97,18.63C15.54,19.72 15.8,20.26 15.78,20.26C14.14,20.81 12.87,21.08 12,21.08C9.58,21.08 7.27,20.13 5.57,18.42C4.53,17.38 3.76,16.11 3.33,14.73H2V10.18H3.09C3.93,6.04 7.6,2.92 12,2.92C14.4,2.92 16.71,3.87 18.42,5.58C19.69,6.84 20.54,8.45 20.89,10.18H22V14.67H22V14.69L22,14.73H21.94L18.38,18L13.08,17.4V15.73H17.91L18.72,14.76M9.27,11.77C9.57,11.77 9.86,11.89 10.07,12.11C10.28,12.32 10.4,12.61 10.4,12.91C10.4,13.21 10.28,13.5 10.07,13.71C9.86,13.92 9.57,14.04 9.27,14.04C8.64,14.04 8.13,13.54 8.13,12.91C8.13,12.28 8.64,11.77 9.27,11.77M14.72,11.77C15.35,11.77 15.85,12.28 15.85,12.91C15.85,13.54 15.35,14.04 14.72,14.04C14.09,14.04 13.58,13.54 13.58,12.91A1.14,1.14 0 0,1 14.72,11.77Z" />
        </svg>
    </defs>
</svg>