<?xml version="1.0" encoding="UTF-8"?>
<svg>
    <defs>
        <svg id="employee" viewBox="0 0 24 24">
            <path d="M12 12c2.21 0 4-1.79 4-4s-1.79-4-4-4-4 1.79-4 4 1.79 4 4 4zm0 2c-2.67 0-8 1.34-8 4v2h16v-2c0-2.66-5.33-4-8-4z"/>
            <path d="M0 0h24v24H0z" fill="none"/>
        </svg>

        <svg id="car" viewBox="0 0 24 24">
            <path d="M5,11L6.5,6.5H17.5L19,11M17.5,16A1.5,1.5 0 0,1 16,14.5A1.5,1.5 0 0,1 17.5,13A1.5,1.5 0 0,1 19,14.5A1.5,1.5 0 0,1 17.5,16M6.5,16A1.5,1.5 0 0,1 5,14.5A1.5,1.5 0 0,1 6.5,13A1.5,1.5 0 0,1 8,14.5A1.5,1.5 0 0,1 6.5,16M18.92,6C18.72,5.42 18.16,5 17.5,5H6.5C5.84,5 5.28,5.42 5.08,6L3,12V20A1,1 0 0,0 4,21H5A1,1 0 0,0 6,20V19H18V20A1,1 0 0,0 19,21H20A1,1 0 0,0 21,20V12L18.92,6Z" />
        </svg>

        <svg id="owner" viewBox="0 0 24 24">
            <path d="M0 0h24v24H0z" fill="none"/>
            <path d="M12 1L3 5v6c0 5.55 3.84 10.74 9 12 5.16-1.26 9-6.45 9-12V5l-9-4zm-2 16l-4-4 1.41-1.41L10 14.17l6.59-6.59L18 9l-8 8z"/>
        </svg>

        <svg id="company" viewBox="0 0 24 24">
            <path d="M0 0h24v24H0z" fill="none"/>
            <path d="M12 7V3H2v18h20V7H12zM6 19H4v-2h2v2zm0-4H4v-2h2v2zm0-4H4V9h2v2zm0-4H4V5h2v2zm4 12H8v-2h2v2zm0-4H8v-2h2v2zm0-4H8V9h2v2zm0-4H8V5h2v2zm10 12h-8v-2h2v-2h-2v-2h2v-2h-2V9h8v10zm-2-8h-2v2h2v-2zm0 4h-2v2h2v-2z"/>
        </svg>

        <svg id="category" viewBox="0 0 24 24">
            <path d="M4 11h5V5H4v6zm0 7h5v-6H4v6zm6 0h5v-6h-5v6zm6 0h5v-6h-5v6zm-6-7h5V5h-5v6zm6-6v6h5V5h-5z"/>
            <path d="M0 0h24v24H0z" fill="none"/>
        </svg>

        <svg id="subcategory" viewBox="0 0 24 24">
            <path d="M4 8h4V4H4v4zm6 12h4v-4h-4v4zm-6 0h4v-4H4v4zm0-6h4v-4H4v4zm6 0h4v-4h-4v4zm6-10v4h4V4h-4zm-6 4h4V4h-4v4zm6 6h4v-4h-4v4zm0 6h4v-4h-4v4z"/>
            <path d="M0 0h24v24H0z" fill="none"/>
        </svg>

        <svg id="product" viewBox="0 0 24 24">
            <path d="M9.06,1.93C7.17,1.92 5.33,3.74 6.17,6H3A2,2 0 0,0 1,8V10A1,1 0 0,0 2,11H11V8H13V11H22A1,1 0 0,0 23,10V8A2,2 0 0,0 21,6H17.83C19,2.73 14.6,0.42 12.57,3.24L12,4L11.43,3.22C10.8,2.33 9.93,1.94 9.06,1.93M9,4C9.89,4 10.34,5.08 9.71,5.71C9.08,6.34 8,5.89 8,5A1,1 0 0,1 9,4M15,4C15.89,4 16.34,5.08 15.71,5.71C15.08,6.34 14,5.89 14,5A1,1 0 0,1 15,4M2,12V20A2,2 0 0,0 4,22H20A2,2 0 0,0 22,20V12H13V20H11V12H2Z" />
        </svg>

        <svg id="brand" viewBox="0 0 24 24">
            <path d="M18.8,2.07C21.32,2.5 22.04,4.23 22,6.04V6L20.86,20.93L6.08,21.94H6.09C4.86,21.89 2.13,21.77 2,17.95L3.37,15.45L6.14,21.91L8.5,14.29L8.45,14.3L8.47,14.28L16.18,16.74L14.19,8.96L21.54,8.5L15.75,3.76L18.8,2.06V2.07M2,17.91V17.93L2,17.91V17.91M6.28,6.23C9.24,3.28 13.07,1.54 14.54,3.03C16,4.5 14.46,8.12 11.5,11.06C8.5,14 4.73,15.84 3.26,14.36C1.79,12.87 3.3,9.17 6.27,6.23H6.28Z" />
        </svg>

        <svg id="subbrand" viewBox="0 0 24 24">
            <path d="M16,9H19L14,16M10,9H14L12,17M5,9H8L10,16M15,4H17L19,7H16M11,4H13L14,7H10M7,4H9L8,7H5M6,2L2,8L12,22L22,8L18,2H6Z" />
        </svg>
        <svg id="superbrand" viewBox="0 0 24 24">
            <path d="M6,2L2,8L12,22L22,8L18,2H6Z" />
        </svg>
        <svg id="couple" viewBox="0 0 24 24">
            <path d="M9,4A4,4 0 0,1 13,8A4,4 0 0,1 9,12A4,4 0 0,1 5,8A4,4 0 0,1 9,4M9,6A2,2 0 0,0 7,8A2,2 0 0,0 9,10A2,2 0 0,0 11,8A2,2 0 0,0 9,6M9,13C11.67,13 17,14.34 17,17V20H1V17C1,14.34 6.33,13 9,13M9,14.9C6.03,14.9 2.9,16.36 2.9,17V18.1H15.1V17C15.1,16.36 11.97,14.9 9,14.9M15,4A4,4 0 0,1 19,8A4,4 0 0,1 15,12C14.53,12 14.08,11.92 13.67,11.77C14.5,10.74 15,9.43 15,8C15,6.57 14.5,5.26 13.67,4.23C14.08,4.08 14.53,4 15,4M23,17V20H19V16.5C19,15.25 18.24,14.1 16.97,13.18C19.68,13.62 23,14.9 23,17Z" />
        </svg>

        <svg id="inventory" viewBox="0 0 24 24">
            <path d="M21,19V17H8V19H21M21,13V11H8V13H21M8,7H21V5H8V7M4,5V7H6V5H4M3,5A1,1 0 0,1 4,4H6A1,1 0 0,1 7,5V7A1,1 0 0,1 6,8H4A1,1 0 0,1 3,7V5M4,11V13H6V11H4M3,11A1,1 0 0,1 4,10H6A1,1 0 0,1 7,11V13A1,1 0 0,1 6,14H4A1,1 0 0,1 3,13V11M4,17V19H6V17H4M3,17A1,1 0 0,1 4,16H6A1,1 0 0,1 7,17V19A1,1 0 0,1 6,20H4A1,1 0 0,1 3,19V17Z" />
        </svg>

        <svg id="invoice" viewBox="0 0 24 24">
            <path d="M3,22L4.5,20.5L6,22L7.5,20.5L9,22L10.5,20.5L12,22L13.5,20.5L15,22L16.5,20.5L18,22L19.5,20.5L21,22V2L19.5,3.5L18,2L16.5,3.5L15,2L13.5,3.5L12,2L10.5,3.5L9,2L7.5,3.5L6,2L4.5,3.5L3,2M18,9H6V7H18M18,13H6V11H18M18,17H6V15H18V17Z" />
        </svg>

        <svg id="purchase" viewBox="0 0 24 24">
            <path d="M5,6H23V18H5V6M14,9A3,3 0 0,1 17,12A3,3 0 0,1 14,15A3,3 0 0,1 11,12A3,3 0 0,1 14,9M9,8A2,2 0 0,1 7,10V14A2,2 0 0,1 9,16H19A2,2 0 0,1 21,14V10A2,2 0 0,1 19,8H9M1,10H3V20H19V22H1V10Z" />
        </svg>

        <svg id="purchaseitem" viewBox="0 0 24 24">
            <path d="M20,18H4V6H20M20,4H4C2.89,4 2,4.89 2,6V18A2,2 0 0,0 4,20H20A2,2 0 0,0 22,18V6C22,4.89 21.1,4 20,4M11,17H13V16H14A1,1 0 0,0 15,15V12A1,1 0 0,0 14,11H11V10H15V8H13V7H11V8H10A1,1 0 0,0 9,9V12A1,1 0 0,0 10,13H13V14H9V16H11V17Z" />
        </svg>

        <svg id="stockkeepingunit" viewBox="0 0 24 24">
            <path d="M4,6H6V18H4V6M7,6H8V18H7V6M9,6H12V18H9V6M13,6H14V18H13V6M16,6H18V18H16V6M19,6H20V18H19V6M2,4V8H0V4A2,2 0 0,1 2,2H6V4H2M22,2A2,2 0 0,1 24,4V8H22V4H18V2H22M2,16V20H6V22H2A2,2 0 0,1 0,20V16H2M22,20V16H24V20A2,2 0 0,1 22,22H18V20H22Z" />
        </svg>

        <svg id="size" viewBox="0 0 24 24">
            <path d="M3,12H6V19H9V12H12V9H3M9,4V7H14V19H17V7H22V4H9Z" />
        </svg>
    </defs>
</svg>